G04*
G04 #@! TF.GenerationSoftware,Altium Limited,Altium Designer,23.8.1 (32)*
G04*
G04 Layer_Physical_Order=1*
G04 Layer_Color=255*
%FSLAX25Y25*%
%MOIN*%
G70*
G04*
G04 #@! TF.SameCoordinates,219BC79F-92E0-4BE4-9349-49C4CE8B2FF6*
G04*
G04*
G04 #@! TF.FilePolarity,Positive*
G04*
G01*
G75*
%ADD15C,0.02000*%
%ADD35R,0.15000X0.07900*%
%ADD36R,0.05900X0.07900*%
%ADD37C,0.04000*%
%ADD38C,0.06000*%
G04:AMPARAMS|DCode=39|XSize=120mil|YSize=60mil|CornerRadius=0mil|HoleSize=0mil|Usage=FLASHONLY|Rotation=180.000|XOffset=0mil|YOffset=0mil|HoleType=Round|Shape=Octagon|*
%AMOCTAGOND39*
4,1,8,-0.06000,0.01500,-0.06000,-0.01500,-0.04500,-0.03000,0.04500,-0.03000,0.06000,-0.01500,0.06000,0.01500,0.04500,0.03000,-0.04500,0.03000,-0.06000,0.01500,0.0*
%
%ADD39OCTAGOND39*%

G04:AMPARAMS|DCode=40|XSize=75mil|YSize=60mil|CornerRadius=0mil|HoleSize=0mil|Usage=FLASHONLY|Rotation=270.000|XOffset=0mil|YOffset=0mil|HoleType=Round|Shape=Octagon|*
%AMOCTAGOND40*
4,1,8,-0.01500,-0.03750,0.01500,-0.03750,0.03000,-0.02250,0.03000,0.02250,0.01500,0.03750,-0.01500,0.03750,-0.03000,0.02250,-0.03000,-0.02250,-0.01500,-0.03750,0.0*
%
%ADD40OCTAGOND40*%

%ADD41R,0.06693X0.06693*%
%ADD42C,0.06693*%
%ADD43C,0.13386*%
G04:AMPARAMS|DCode=44|XSize=75mil|YSize=60mil|CornerRadius=0mil|HoleSize=0mil|Usage=FLASHONLY|Rotation=135.000|XOffset=0mil|YOffset=0mil|HoleType=Round|Shape=Octagon|*
%AMOCTAGOND44*
4,1,8,-0.01591,0.03712,-0.03712,0.01591,-0.03712,-0.00530,-0.00530,-0.03712,0.01591,-0.03712,0.03712,-0.01591,0.03712,0.00530,0.00530,0.03712,-0.01591,0.03712,0.0*
%
%ADD44OCTAGOND44*%

G04:AMPARAMS|DCode=45|XSize=75mil|YSize=60mil|CornerRadius=0mil|HoleSize=0mil|Usage=FLASHONLY|Rotation=180.000|XOffset=0mil|YOffset=0mil|HoleType=Round|Shape=Octagon|*
%AMOCTAGOND45*
4,1,8,-0.03750,0.01500,-0.03750,-0.01500,-0.02250,-0.03000,0.02250,-0.03000,0.03750,-0.01500,0.03750,0.01500,0.02250,0.03000,-0.02250,0.03000,-0.03750,0.01500,0.0*
%
%ADD45OCTAGOND45*%

G04:AMPARAMS|DCode=46|XSize=75mil|YSize=60mil|CornerRadius=0mil|HoleSize=0mil|Usage=FLASHONLY|Rotation=225.000|XOffset=0mil|YOffset=0mil|HoleType=Round|Shape=Octagon|*
%AMOCTAGOND46*
4,1,8,-0.03712,-0.01591,-0.01591,-0.03712,0.00530,-0.03712,0.03712,-0.00530,0.03712,0.01591,0.01591,0.03712,-0.00530,0.03712,-0.03712,0.00530,-0.03712,-0.01591,0.0*
%
%ADD46OCTAGOND46*%

G04:AMPARAMS|DCode=47|XSize=65mil|YSize=65mil|CornerRadius=0mil|HoleSize=0mil|Usage=FLASHONLY|Rotation=90.000|XOffset=0mil|YOffset=0mil|HoleType=Round|Shape=Octagon|*
%AMOCTAGOND47*
4,1,8,0.01625,0.03250,-0.01625,0.03250,-0.03250,0.01625,-0.03250,-0.01625,-0.01625,-0.03250,0.01625,-0.03250,0.03250,-0.01625,0.03250,0.01625,0.01625,0.03250,0.0*
%
%ADD47OCTAGOND47*%

%ADD48C,0.06500*%
%ADD49C,0.02362*%
G36*
X656521Y432902D02*
X659670Y432367D01*
X662741Y431483D01*
X665692Y430260D01*
X668489Y428715D01*
X671095Y426866D01*
X673477Y424737D01*
X675606Y422354D01*
X677455Y419749D01*
X679000Y416952D01*
X680223Y414001D01*
X681107Y410930D01*
X681642Y407781D01*
X681815Y404701D01*
X681801Y404591D01*
Y168370D01*
X681815Y168260D01*
X681642Y165180D01*
X681107Y162030D01*
X680223Y158960D01*
X679000Y156008D01*
X677455Y153212D01*
X675606Y150606D01*
X673477Y148224D01*
X671095Y146095D01*
X668489Y144246D01*
X665692Y142701D01*
X662741Y141478D01*
X659670Y140594D01*
X656521Y140058D01*
X653441Y139885D01*
X653331Y139900D01*
X597301D01*
Y172307D01*
X597318D01*
X597150Y174011D01*
X596653Y175650D01*
X595846Y177160D01*
X594759Y178484D01*
X593436Y179570D01*
X591925Y180377D01*
X590287Y180874D01*
X588583Y181042D01*
Y181026D01*
X403459D01*
X403268Y181045D01*
X401534Y180874D01*
X399867Y180368D01*
X398330Y179547D01*
X396984Y178442D01*
X395878Y177095D01*
X395057Y175558D01*
X394551Y173891D01*
X394403Y172385D01*
X394403D01*
X394399Y172307D01*
X394399Y171386D01*
Y139900D01*
X338370D01*
X338260Y139885D01*
X335180Y140058D01*
X332030Y140594D01*
X328960Y141478D01*
X326008Y142701D01*
X323212Y144246D01*
X320606Y146095D01*
X318224Y148224D01*
X316095Y150606D01*
X314246Y153212D01*
X312701Y156008D01*
X311478Y158960D01*
X310594Y162030D01*
X310058Y165180D01*
X309885Y168260D01*
X309900Y168370D01*
Y404591D01*
X309885Y404701D01*
X310058Y407781D01*
X310594Y410930D01*
X311478Y414001D01*
X312701Y416952D01*
X314246Y419749D01*
X316095Y422354D01*
X318224Y424737D01*
X320606Y426866D01*
X323212Y428715D01*
X326008Y430260D01*
X328960Y431483D01*
X332030Y432367D01*
X335180Y432902D01*
X338260Y433075D01*
X338370Y433061D01*
X394399D01*
Y400654D01*
X394383D01*
X394550Y398957D01*
X395045Y397326D01*
X395849Y395823D01*
X396930Y394505D01*
X398248Y393424D01*
X399751Y392620D01*
X401382Y392125D01*
X403079Y391958D01*
Y391974D01*
X588283D01*
X588473Y391955D01*
X590199Y392126D01*
X591858Y392629D01*
X593388Y393447D01*
X594729Y394547D01*
X595829Y395888D01*
X596647Y397417D01*
X597150Y399077D01*
X597298Y400576D01*
X597298D01*
X597301Y400654D01*
X597301Y401574D01*
Y433061D01*
X653331D01*
X653441Y433075D01*
X656521Y432902D01*
D02*
G37*
%LPC*%
G36*
X641303Y423750D02*
X636303D01*
X633803Y421250D01*
X631303Y423750D01*
X626303D01*
X623803Y421250D01*
Y414750D01*
X625974Y412579D01*
Y400853D01*
X613447Y388326D01*
X460300D01*
X460300Y388326D01*
X459517Y388223D01*
X458787Y387920D01*
X458160Y387440D01*
X458160Y387440D01*
X448860Y378140D01*
X448380Y377513D01*
X448077Y376783D01*
X447974Y376000D01*
Y374612D01*
X447050Y374229D01*
X436140Y385140D01*
X435513Y385620D01*
X434783Y385923D01*
X434000Y386026D01*
X372900D01*
X372117Y385923D01*
X371387Y385620D01*
X370760Y385140D01*
X370760Y385140D01*
X364560Y378940D01*
X364079Y378313D01*
X363777Y377583D01*
X363674Y376800D01*
Y359416D01*
X363777Y358633D01*
X364079Y357903D01*
X364560Y357277D01*
X401457Y320380D01*
X401023Y319399D01*
X399928Y319106D01*
X398709Y318402D01*
X397714Y317407D01*
X397010Y316188D01*
X396646Y314828D01*
Y313420D01*
X397010Y312060D01*
X397714Y310841D01*
X398709Y309846D01*
X399928Y309142D01*
X401288Y308778D01*
X402696D01*
X404056Y309142D01*
X405275Y309846D01*
X406270Y310841D01*
X406415Y311091D01*
X407570D01*
X407714Y310841D01*
X408709Y309846D01*
X409929Y309142D01*
X411288Y308778D01*
X412696D01*
X414056Y309142D01*
X415275Y309846D01*
X416270Y310841D01*
X416974Y312060D01*
X417339Y313420D01*
Y314828D01*
X416974Y316188D01*
X416270Y317407D01*
X415275Y318402D01*
X414056Y319106D01*
X412696Y319471D01*
X411288D01*
X411002Y319394D01*
X369726Y360669D01*
Y375547D01*
X374153Y379974D01*
X432747D01*
X442974Y369747D01*
Y355998D01*
X442819Y355419D01*
Y354581D01*
X443036Y353772D01*
X443455Y353047D01*
X444047Y352454D01*
X444444Y352225D01*
X444742Y351108D01*
X439406Y345772D01*
X438704Y345961D01*
X437296D01*
X435936Y345596D01*
X435534Y345364D01*
X434535Y345942D01*
Y368121D01*
X434535Y368121D01*
X434397Y369165D01*
X433994Y370138D01*
X433839Y370341D01*
Y371562D01*
X433474Y372921D01*
X432770Y374141D01*
X431775Y375136D01*
X430556Y375840D01*
X429196Y376204D01*
X427788D01*
X426429Y375840D01*
X425209Y375136D01*
X424214Y374141D01*
X423510Y372921D01*
X423146Y371562D01*
Y370154D01*
X423510Y368794D01*
X424079Y367809D01*
X423347Y367077D01*
X423228Y367145D01*
X422419Y367362D01*
X421581D01*
X420772Y367145D01*
X420047Y366727D01*
X419454Y366134D01*
X419155Y365615D01*
X416860Y363321D01*
X416421Y362748D01*
X416047Y362964D01*
X415238Y363181D01*
X414400D01*
X413591Y362964D01*
X412866Y362545D01*
X412273Y361953D01*
X411855Y361228D01*
X411638Y360419D01*
Y359581D01*
X411793Y359002D01*
Y351072D01*
X406518Y345798D01*
X405999Y345498D01*
X405407Y344905D01*
X405336Y344783D01*
X404111Y344595D01*
X382527Y366179D01*
Y367331D01*
X382770Y367575D01*
X382915Y367825D01*
X384069D01*
X384214Y367575D01*
X385209Y366579D01*
X386428Y365876D01*
X387788Y365511D01*
X389196D01*
X390556Y365876D01*
X391775Y366579D01*
X392770Y367575D01*
X392915Y367825D01*
X394070D01*
X394214Y367575D01*
X395209Y366579D01*
X396428Y365876D01*
X397788Y365511D01*
X399196D01*
X400556Y365876D01*
X401775Y366579D01*
X402770Y367575D01*
X402915Y367825D01*
X404070D01*
X404214Y367575D01*
X405209Y366579D01*
X406428Y365876D01*
X407788Y365511D01*
X409196D01*
X410556Y365876D01*
X411775Y366579D01*
X412770Y367575D01*
X413474Y368794D01*
X413839Y370154D01*
Y371562D01*
X413474Y372921D01*
X412770Y374141D01*
X411775Y375136D01*
X410556Y375840D01*
X409196Y376204D01*
X407788D01*
X406428Y375840D01*
X405209Y375136D01*
X404214Y374141D01*
X404070Y373890D01*
X402915D01*
X402770Y374141D01*
X401775Y375136D01*
X400556Y375840D01*
X399196Y376204D01*
X397788D01*
X396428Y375840D01*
X395209Y375136D01*
X394214Y374141D01*
X394070Y373890D01*
X392915D01*
X392770Y374141D01*
X391775Y375136D01*
X390556Y375840D01*
X389196Y376204D01*
X387788D01*
X386428Y375840D01*
X385209Y375136D01*
X384214Y374141D01*
X384069Y373890D01*
X382915D01*
X382770Y374141D01*
X381775Y375136D01*
X380556Y375840D01*
X379196Y376204D01*
X377788D01*
X376429Y375840D01*
X375209Y375136D01*
X374214Y374141D01*
X373510Y372921D01*
X373146Y371562D01*
Y370154D01*
X373510Y368794D01*
X374214Y367575D01*
X374458Y367331D01*
Y364508D01*
X374458Y364508D01*
X374595Y363464D01*
X374998Y362491D01*
X375639Y361655D01*
X420466Y316829D01*
Y305171D01*
X399139Y283845D01*
X398498Y283009D01*
X398095Y282036D01*
X397958Y280992D01*
X397958Y280992D01*
Y265736D01*
X396958Y265322D01*
X388423Y273856D01*
X387796Y274337D01*
X387067Y274639D01*
X386283Y274742D01*
X373529D01*
X373381Y274999D01*
X372385Y275995D01*
X372137Y276138D01*
Y277138D01*
X372385Y277281D01*
X373381Y278276D01*
X374084Y279495D01*
X374449Y280855D01*
Y282263D01*
X374084Y283623D01*
X373381Y284842D01*
X372385Y285837D01*
X372137Y285980D01*
Y286980D01*
X372385Y287123D01*
X373381Y288119D01*
X374084Y289338D01*
X374449Y290698D01*
Y292106D01*
X374084Y293465D01*
X373381Y294684D01*
X372385Y295680D01*
X372137Y295823D01*
Y296823D01*
X372385Y296966D01*
X373381Y297961D01*
X374084Y299181D01*
X374449Y300540D01*
Y301948D01*
X374084Y303308D01*
X373381Y304527D01*
X372385Y305522D01*
X372137Y305665D01*
Y306665D01*
X372385Y306808D01*
X373381Y307804D01*
X374084Y309023D01*
X374305Y309844D01*
X375411Y310152D01*
X375717Y309846D01*
X376936Y309142D01*
X378296Y308778D01*
X379704D01*
X381064Y309142D01*
X382283Y309846D01*
X383278Y310841D01*
X383423Y311091D01*
X384577D01*
X384722Y310841D01*
X385717Y309846D01*
X386936Y309142D01*
X388296Y308778D01*
X389704D01*
X391064Y309142D01*
X392283Y309846D01*
X393278Y310841D01*
X393982Y312060D01*
X394346Y313420D01*
Y314828D01*
X393982Y316188D01*
X393278Y317407D01*
X392283Y318402D01*
X391064Y319106D01*
X389704Y319471D01*
X388296D01*
X386936Y319106D01*
X385717Y318402D01*
X384722Y317407D01*
X384577Y317157D01*
X383423D01*
X383278Y317407D01*
X382283Y318402D01*
X381064Y319106D01*
X379704Y319471D01*
X378296D01*
X376936Y319106D01*
X375717Y318402D01*
X374722Y317407D01*
X374018Y316188D01*
X373837Y315512D01*
X372886Y315218D01*
X372382Y315608D01*
X372385Y316490D01*
X372415Y316680D01*
X373381Y317646D01*
X374084Y318865D01*
X374449Y320225D01*
Y321633D01*
X374084Y322993D01*
X373381Y324212D01*
X372385Y325207D01*
X372137Y325350D01*
Y326350D01*
X372385Y326493D01*
X373381Y327489D01*
X374084Y328708D01*
X374449Y330068D01*
Y331475D01*
X374084Y332835D01*
X373381Y334054D01*
X372385Y335050D01*
X372137Y335193D01*
Y336193D01*
X372385Y336336D01*
X373381Y337331D01*
X374084Y338550D01*
X374449Y339910D01*
Y341318D01*
X374084Y342678D01*
X373381Y343897D01*
X372385Y344892D01*
X371166Y345596D01*
X369806Y345961D01*
X368398D01*
X368112Y345884D01*
X359262Y354734D01*
Y389579D01*
X360186Y389961D01*
X360388Y389760D01*
X361811Y388808D01*
X363393Y388153D01*
X365073Y387819D01*
X366785D01*
X368465Y388153D01*
X370047Y388808D01*
X371470Y389760D01*
X372681Y390970D01*
X373633Y392394D01*
X374288Y393976D01*
X374622Y395656D01*
Y397368D01*
X374288Y399047D01*
X373633Y400629D01*
X372681Y402053D01*
X372480Y402255D01*
X372862Y403179D01*
X376955D01*
X377738Y403282D01*
X378468Y403584D01*
X379094Y404065D01*
X387279Y412250D01*
X390500D01*
X393000Y414750D01*
Y421250D01*
X390500Y423750D01*
X385500D01*
X383000Y421250D01*
X380500Y423750D01*
X375500D01*
X373000Y421250D01*
X370500Y423750D01*
X365500D01*
X363000Y421250D01*
X360500Y423750D01*
X355500D01*
X353000Y421250D01*
Y414750D01*
X355500Y412250D01*
X356810D01*
X357113Y411250D01*
X355570Y410219D01*
X353909Y408762D01*
X352453Y407102D01*
X351226Y405265D01*
X350249Y403284D01*
X349539Y401193D01*
X349108Y399027D01*
X349023Y397726D01*
X348964Y396823D01*
X348969Y396748D01*
X348974Y395750D01*
Y346700D01*
X349077Y345917D01*
X349379Y345187D01*
X349860Y344561D01*
X363756Y330665D01*
Y330068D01*
X364120Y328708D01*
X364824Y327489D01*
X365820Y326493D01*
X366067Y326350D01*
Y325350D01*
X365820Y325207D01*
X364824Y324212D01*
X364676Y323955D01*
X351642D01*
X351065Y324955D01*
X351462Y325643D01*
X351827Y327003D01*
Y328411D01*
X351462Y329770D01*
X350759Y330990D01*
X349763Y331985D01*
X348544Y332689D01*
X347184Y333053D01*
X345776D01*
X345189Y332896D01*
X344676Y333704D01*
X344662Y333790D01*
X345121Y334387D01*
X345423Y335117D01*
X345526Y335900D01*
Y381116D01*
X345526Y381116D01*
X345423Y381899D01*
X345121Y382629D01*
X344976Y382818D01*
Y386237D01*
X340380Y390833D01*
X336844D01*
X333309Y387298D01*
Y383762D01*
X329773D01*
X326237Y380227D01*
Y376691D01*
X330834Y372095D01*
X333625D01*
X334974Y370746D01*
Y344253D01*
X327860Y337140D01*
X327379Y336513D01*
X327077Y335783D01*
X326974Y335000D01*
Y319000D01*
X327077Y318217D01*
X327379Y317487D01*
X327860Y316860D01*
X335774Y308947D01*
X336400Y308466D01*
X337130Y308164D01*
X337913Y308061D01*
X364676D01*
X364824Y307804D01*
X365820Y306808D01*
X366067Y306665D01*
Y305665D01*
X365820Y305522D01*
X364824Y304527D01*
X364744Y304388D01*
X330342D01*
X328250Y306480D01*
X321750D01*
X319250Y303980D01*
Y298980D01*
X321750Y296480D01*
X319250Y293980D01*
Y288980D01*
X321750Y286480D01*
X328250D01*
X330185Y288415D01*
X364653D01*
X364824Y288119D01*
X365820Y287123D01*
X366067Y286980D01*
Y285980D01*
X365820Y285837D01*
X364824Y284842D01*
X364120Y283623D01*
X363756Y282263D01*
Y280855D01*
X364120Y279495D01*
X364824Y278276D01*
X365820Y277281D01*
X366067Y277138D01*
Y276138D01*
X365820Y275995D01*
X364824Y274999D01*
X364120Y273780D01*
X363756Y272420D01*
Y271013D01*
X364120Y269653D01*
X364824Y268434D01*
X365820Y267438D01*
X366067Y267295D01*
Y266295D01*
X365820Y266152D01*
X364824Y265157D01*
X364749Y265026D01*
X360000D01*
X359217Y264923D01*
X358487Y264620D01*
X357860Y264140D01*
X357860Y264140D01*
X336860Y243140D01*
X336380Y242513D01*
X336077Y241783D01*
X335974Y241000D01*
Y231499D01*
X319483Y215008D01*
X316691D01*
X312095Y210412D01*
Y206876D01*
X315631Y203340D01*
X319166D01*
Y199805D01*
X322702Y196269D01*
X326237D01*
X330834Y200866D01*
Y203657D01*
X350140Y222963D01*
X350621Y223590D01*
X350923Y224320D01*
X351026Y225103D01*
Y238747D01*
X361285Y249006D01*
X364676D01*
X364824Y248749D01*
X365820Y247753D01*
X366067Y247610D01*
Y246610D01*
X365820Y246467D01*
X364824Y245472D01*
X364676Y245215D01*
X361189D01*
X361189Y245215D01*
X360406Y245112D01*
X359676Y244810D01*
X359049Y244329D01*
X359049Y244329D01*
X353860Y239140D01*
X353380Y238513D01*
X353077Y237783D01*
X352974Y237000D01*
Y193253D01*
X325860Y166140D01*
X325379Y165513D01*
X325077Y164783D01*
X324974Y164000D01*
Y160224D01*
X323000Y158250D01*
Y151750D01*
X325500Y149250D01*
X330500D01*
X333000Y151750D01*
X335500Y149250D01*
X340500D01*
X343000Y151750D01*
X345500Y149250D01*
X350500D01*
X353000Y151750D01*
X355500Y149250D01*
X360500D01*
X363000Y151750D01*
Y158250D01*
X360500Y160750D01*
X355500D01*
X353000Y158250D01*
X350500Y160750D01*
X345500D01*
X343000Y158250D01*
X341026Y160224D01*
Y162747D01*
X356336Y178057D01*
X357258Y177565D01*
X357236Y177455D01*
Y175742D01*
X357570Y174063D01*
X358226Y172481D01*
X359177Y171057D01*
X360388Y169846D01*
X361811Y168895D01*
X363393Y168240D01*
X365073Y167905D01*
X366785D01*
X368465Y168240D01*
X370047Y168895D01*
X371470Y169846D01*
X372681Y171057D01*
X373633Y172481D01*
X374288Y174063D01*
X374622Y175742D01*
Y177455D01*
X374288Y179134D01*
X373633Y180716D01*
X372681Y182140D01*
X371470Y183351D01*
X370047Y184302D01*
X368465Y184957D01*
X366785Y185291D01*
X365073D01*
X364944Y185266D01*
X364402Y186055D01*
X364380Y186173D01*
X364620Y186487D01*
X364923Y187217D01*
X365026Y188000D01*
X365026Y188000D01*
Y223991D01*
X368112Y227077D01*
X368398Y227000D01*
X369806D01*
X371166Y227364D01*
X372385Y228068D01*
X373381Y229064D01*
X374084Y230283D01*
X374449Y231643D01*
Y233050D01*
X374084Y234410D01*
X373381Y235629D01*
X372385Y236625D01*
X372137Y236768D01*
Y237768D01*
X372385Y237911D01*
X373381Y238906D01*
X374084Y240125D01*
X374449Y241485D01*
Y242893D01*
X374084Y244253D01*
X373381Y245472D01*
X372385Y246467D01*
X372137Y246610D01*
Y247610D01*
X372385Y247753D01*
X373381Y248749D01*
X374084Y249968D01*
X374346Y250944D01*
X375275Y251285D01*
X375428Y251277D01*
X375717Y250988D01*
X376936Y250284D01*
X378296Y249919D01*
X379704D01*
X381064Y250284D01*
X382283Y250988D01*
X383277Y251982D01*
X383283Y251983D01*
X384332Y252062D01*
X384965Y251394D01*
Y235671D01*
X375639Y226345D01*
X374998Y225509D01*
X374595Y224536D01*
X374458Y223492D01*
X374458Y223492D01*
Y205629D01*
X374214Y205386D01*
X373510Y204167D01*
X373146Y202807D01*
Y201399D01*
X373510Y200039D01*
X374214Y198820D01*
X375209Y197825D01*
X376429Y197121D01*
X377788Y196756D01*
X379196D01*
X380556Y197121D01*
X381775Y197825D01*
X382770Y198820D01*
X383474Y200039D01*
X383839Y201399D01*
Y202807D01*
X383474Y204167D01*
X382770Y205386D01*
X382527Y205629D01*
Y221821D01*
X391853Y231147D01*
X391853Y231147D01*
X392494Y231983D01*
X392897Y232956D01*
X393035Y234000D01*
Y241272D01*
X394035Y241686D01*
X427353Y208368D01*
X427054Y207253D01*
X426429Y207085D01*
X425209Y206381D01*
X424214Y205386D01*
X424069Y205136D01*
X422915D01*
X422770Y205386D01*
X421775Y206381D01*
X420556Y207085D01*
X419196Y207449D01*
X417788D01*
X416429Y207085D01*
X415209Y206381D01*
X414214Y205386D01*
X414070Y205136D01*
X412915D01*
X412770Y205386D01*
X411775Y206381D01*
X410556Y207085D01*
X409196Y207449D01*
X407788D01*
X406428Y207085D01*
X405209Y206381D01*
X404214Y205386D01*
X404070Y205136D01*
X402915D01*
X402770Y205386D01*
X401775Y206381D01*
X400556Y207085D01*
X399196Y207449D01*
X397788D01*
X396428Y207085D01*
X395209Y206381D01*
X394214Y205386D01*
X393510Y204167D01*
X393146Y202807D01*
Y201399D01*
X393510Y200039D01*
X394214Y198820D01*
X395209Y197825D01*
X396428Y197121D01*
X397788Y196756D01*
X399196D01*
X400556Y197121D01*
X401775Y197825D01*
X402770Y198820D01*
X402915Y199070D01*
X404070D01*
X404214Y198820D01*
X405209Y197825D01*
X406428Y197121D01*
X407788Y196756D01*
X409196D01*
X410556Y197121D01*
X411775Y197825D01*
X412770Y198820D01*
X412915Y199070D01*
X414070D01*
X414214Y198820D01*
X415209Y197825D01*
X416429Y197121D01*
X417788Y196756D01*
X419196D01*
X420556Y197121D01*
X421775Y197825D01*
X422770Y198820D01*
X422915Y199070D01*
X424069D01*
X424214Y198820D01*
X425209Y197825D01*
X426429Y197121D01*
X427788Y196756D01*
X429196D01*
X430556Y197121D01*
X431775Y197825D01*
X432770Y198820D01*
X433474Y200039D01*
X433642Y200665D01*
X434757Y200964D01*
X448041Y187679D01*
X448668Y187198D01*
X449398Y186896D01*
X450181Y186793D01*
X471819D01*
X472602Y186896D01*
X473332Y187198D01*
X473958Y187679D01*
X498140Y211860D01*
X498621Y212487D01*
X498923Y213217D01*
X499026Y214000D01*
Y244747D01*
X523006Y268727D01*
X529573D01*
X529722Y268470D01*
X530717Y267474D01*
X531936Y266770D01*
X533296Y266406D01*
X534704D01*
X536064Y266770D01*
X537283Y267474D01*
X538278Y268470D01*
X538982Y269689D01*
X539347Y271049D01*
Y272456D01*
X538982Y273816D01*
X538278Y275035D01*
X537283Y276031D01*
X536926Y276237D01*
Y277392D01*
X537283Y277598D01*
X538278Y278593D01*
X538982Y279813D01*
X539347Y281172D01*
Y282580D01*
X538982Y283940D01*
X538278Y285159D01*
X537283Y286155D01*
X536926Y286361D01*
Y287515D01*
X537283Y287722D01*
X538278Y288717D01*
X538982Y289936D01*
X539347Y291296D01*
Y292704D01*
X538982Y294064D01*
X538278Y295283D01*
X537283Y296278D01*
X536926Y296484D01*
Y297639D01*
X537283Y297846D01*
X538278Y298841D01*
X538982Y300060D01*
X539347Y301420D01*
Y302828D01*
X538982Y304187D01*
X538278Y305406D01*
X537283Y306402D01*
X536926Y306608D01*
Y307763D01*
X537283Y307969D01*
X538278Y308965D01*
X538982Y310184D01*
X539347Y311544D01*
Y312951D01*
X538982Y314311D01*
X538634Y314914D01*
X539434Y315528D01*
X556409Y298553D01*
X556332Y298267D01*
Y296859D01*
X556696Y295499D01*
X557400Y294280D01*
X558396Y293285D01*
X558646Y293140D01*
Y291986D01*
X558396Y291841D01*
X557400Y290846D01*
X556696Y289627D01*
X556332Y288267D01*
Y286859D01*
X556696Y285499D01*
X557400Y284280D01*
X558396Y283285D01*
X558646Y283140D01*
Y281986D01*
X558396Y281841D01*
X557400Y280846D01*
X556696Y279627D01*
X556332Y278267D01*
Y276859D01*
X556696Y275499D01*
X557400Y274280D01*
X558396Y273285D01*
X558646Y273140D01*
Y271986D01*
X558396Y271841D01*
X557400Y270846D01*
X556696Y269627D01*
X556332Y268267D01*
Y266859D01*
X556696Y265499D01*
X557400Y264280D01*
X558396Y263285D01*
X558646Y263140D01*
Y261986D01*
X558396Y261841D01*
X557400Y260846D01*
X556696Y259627D01*
X556332Y258267D01*
Y256859D01*
X556696Y255499D01*
X557400Y254280D01*
X558396Y253285D01*
X558646Y253140D01*
Y251986D01*
X558396Y251841D01*
X557400Y250846D01*
X556696Y249627D01*
X556332Y248267D01*
Y246859D01*
X556696Y245499D01*
X557400Y244280D01*
X558396Y243285D01*
X558646Y243140D01*
Y241986D01*
X558396Y241841D01*
X557400Y240846D01*
X556696Y239627D01*
X556332Y238267D01*
Y236859D01*
X556696Y235499D01*
X557400Y234280D01*
X558396Y233285D01*
X558646Y233140D01*
Y231986D01*
X558396Y231841D01*
X557400Y230846D01*
X556696Y229627D01*
X556332Y228267D01*
Y226859D01*
X556696Y225499D01*
X557400Y224280D01*
X558396Y223285D01*
X558646Y223140D01*
Y221986D01*
X558396Y221841D01*
X557400Y220846D01*
X556696Y219627D01*
X556332Y218267D01*
Y216859D01*
X556696Y215499D01*
X557400Y214280D01*
X558396Y213285D01*
X558646Y213140D01*
Y211986D01*
X558396Y211841D01*
X557400Y210846D01*
X556696Y209627D01*
X556332Y208267D01*
Y206859D01*
X556696Y205499D01*
X557400Y204280D01*
X558396Y203285D01*
X559615Y202581D01*
X560975Y202217D01*
X562382D01*
X563742Y202581D01*
X564961Y203285D01*
X565957Y204280D01*
X566660Y205499D01*
X567025Y206859D01*
Y208267D01*
X566660Y209627D01*
X565957Y210846D01*
X564961Y211841D01*
X564711Y211986D01*
Y213140D01*
X564961Y213285D01*
X565957Y214280D01*
X566660Y215499D01*
X567025Y216859D01*
Y218267D01*
X566660Y219627D01*
X565957Y220846D01*
X564961Y221841D01*
X564711Y221986D01*
Y223140D01*
X564961Y223285D01*
X565957Y224280D01*
X566660Y225499D01*
X567025Y226859D01*
Y228267D01*
X566660Y229627D01*
X565957Y230846D01*
X564961Y231841D01*
X564711Y231986D01*
Y233140D01*
X564961Y233285D01*
X565957Y234280D01*
X566660Y235499D01*
X567025Y236859D01*
Y238267D01*
X566660Y239627D01*
X565957Y240846D01*
X564961Y241841D01*
X564711Y241986D01*
Y243140D01*
X564961Y243285D01*
X565957Y244280D01*
X566660Y245499D01*
X567025Y246859D01*
Y248267D01*
X566660Y249627D01*
X565957Y250846D01*
X564961Y251841D01*
X564711Y251986D01*
Y253140D01*
X564961Y253285D01*
X565957Y254280D01*
X566660Y255499D01*
X567025Y256859D01*
Y258267D01*
X566660Y259627D01*
X565957Y260846D01*
X564961Y261841D01*
X564711Y261986D01*
Y263140D01*
X564961Y263285D01*
X565957Y264280D01*
X566660Y265499D01*
X567025Y266859D01*
Y268267D01*
X566660Y269627D01*
X565957Y270846D01*
X564961Y271841D01*
X564711Y271986D01*
Y273140D01*
X564961Y273285D01*
X565957Y274280D01*
X566660Y275499D01*
X567025Y276859D01*
Y278267D01*
X566660Y279627D01*
X565957Y280846D01*
X564961Y281841D01*
X564711Y281986D01*
Y283140D01*
X564961Y283285D01*
X565957Y284280D01*
X566660Y285499D01*
X567025Y286859D01*
Y288267D01*
X566660Y289627D01*
X565957Y290846D01*
X564961Y291841D01*
X564711Y291986D01*
Y293140D01*
X564961Y293285D01*
X565957Y294280D01*
X566660Y295499D01*
X567025Y296859D01*
Y298267D01*
X566660Y299627D01*
X565957Y300846D01*
X564961Y301841D01*
X564711Y301986D01*
Y303140D01*
X564961Y303285D01*
X565957Y304280D01*
X566660Y305499D01*
X567025Y306859D01*
Y308267D01*
X566660Y309627D01*
X565957Y310846D01*
X564961Y311841D01*
X564711Y311986D01*
Y313140D01*
X564961Y313285D01*
X565957Y314280D01*
X566660Y315499D01*
X567025Y316859D01*
Y318267D01*
X566660Y319627D01*
X565957Y320846D01*
X564961Y321841D01*
X564711Y321986D01*
Y323140D01*
X564961Y323285D01*
X565957Y324280D01*
X566660Y325499D01*
X567025Y326859D01*
Y328267D01*
X566660Y329627D01*
X565957Y330846D01*
X564961Y331841D01*
X563742Y332545D01*
X562382Y332909D01*
X560975D01*
X560688Y332833D01*
X558026Y335495D01*
Y342343D01*
X559026Y342921D01*
X559615Y342581D01*
X560975Y342216D01*
X562382D01*
X563742Y342581D01*
X564961Y343285D01*
X565957Y344280D01*
X566660Y345499D01*
X567025Y346859D01*
Y348267D01*
X566660Y349627D01*
X565957Y350846D01*
X564961Y351841D01*
X563742Y352545D01*
X562382Y352909D01*
X560975D01*
X559615Y352545D01*
X558396Y351841D01*
X558094Y351539D01*
X557140Y351140D01*
X556760Y351519D01*
X535640Y372640D01*
X535013Y373120D01*
X534283Y373423D01*
X533500Y373526D01*
X470298D01*
X469719Y373681D01*
X468881D01*
X468072Y373464D01*
X467347Y373045D01*
X466754Y372453D01*
X466336Y371728D01*
X466119Y370919D01*
Y370081D01*
X466336Y369272D01*
X466754Y368547D01*
X467347Y367954D01*
X467754Y367720D01*
X468336Y366728D01*
X468119Y365919D01*
Y365081D01*
X468336Y364272D01*
X468754Y363547D01*
X469347Y362954D01*
X469754Y362720D01*
X470336Y361728D01*
X470119Y360919D01*
Y360081D01*
X470336Y359272D01*
X470754Y358547D01*
X471347Y357955D01*
X471851Y357664D01*
X472093Y357419D01*
X472263Y356449D01*
X472136Y356228D01*
X471919Y355419D01*
Y354581D01*
X472136Y353772D01*
X472554Y353047D01*
X473147Y352454D01*
X473872Y352036D01*
X474681Y351819D01*
X475519D01*
X476098Y351974D01*
X523747D01*
X537974Y337747D01*
Y327266D01*
X536974Y326828D01*
X536064Y327353D01*
X534704Y327718D01*
X533296D01*
X531936Y327353D01*
X530717Y326649D01*
X529722Y325654D01*
X529018Y324435D01*
X528653Y323075D01*
Y321667D01*
X529018Y320307D01*
X529722Y319088D01*
X530717Y318093D01*
X531074Y317887D01*
Y316732D01*
X530717Y316526D01*
X529722Y315530D01*
X529018Y314311D01*
X528653Y312951D01*
Y311544D01*
X529018Y310184D01*
X529722Y308965D01*
X530717Y307969D01*
X531074Y307763D01*
Y306608D01*
X530717Y306402D01*
X529722Y305406D01*
X529018Y304187D01*
X528653Y302828D01*
Y301420D01*
X529018Y300060D01*
X529722Y298841D01*
X530717Y297846D01*
X531074Y297639D01*
Y296484D01*
X530717Y296278D01*
X529722Y295283D01*
X529018Y294064D01*
X528653Y292704D01*
Y291296D01*
X529018Y289936D01*
X529722Y288717D01*
X530717Y287722D01*
X531074Y287515D01*
Y286361D01*
X530717Y286155D01*
X529722Y285159D01*
X529573Y284902D01*
X522876D01*
X522876Y284902D01*
X522093Y284799D01*
X521363Y284497D01*
X520737Y284016D01*
X487860Y251140D01*
X487380Y250513D01*
X487077Y249783D01*
X486974Y249000D01*
Y217253D01*
X467565Y197845D01*
X462970D01*
X462181Y198762D01*
Y199600D01*
X461964Y200409D01*
X461546Y201134D01*
X461463Y201217D01*
X461877Y202217D01*
X462382D01*
X463742Y202581D01*
X464961Y203285D01*
X465957Y204280D01*
X466660Y205499D01*
X467025Y206859D01*
Y208267D01*
X466660Y209627D01*
X465957Y210846D01*
X464961Y211841D01*
X464711Y211986D01*
Y213140D01*
X464961Y213285D01*
X465957Y214280D01*
X466660Y215499D01*
X467025Y216859D01*
Y218267D01*
X466660Y219627D01*
X465957Y220846D01*
X464961Y221841D01*
X464711Y221986D01*
Y223140D01*
X464961Y223285D01*
X465957Y224280D01*
X466660Y225499D01*
X467025Y226859D01*
Y228267D01*
X466660Y229627D01*
X465957Y230846D01*
X464961Y231841D01*
X464711Y231986D01*
Y233140D01*
X464961Y233285D01*
X465957Y234280D01*
X466660Y235499D01*
X467025Y236859D01*
Y238267D01*
X466660Y239627D01*
X465957Y240846D01*
X464961Y241841D01*
X464711Y241986D01*
Y243140D01*
X464961Y243285D01*
X465957Y244280D01*
X466660Y245499D01*
X467025Y246859D01*
Y248267D01*
X466660Y249627D01*
X465957Y250846D01*
X464961Y251841D01*
X464711Y251986D01*
Y253140D01*
X464961Y253285D01*
X465957Y254280D01*
X466660Y255499D01*
X467025Y256859D01*
Y258267D01*
X466660Y259627D01*
X465957Y260846D01*
X464961Y261841D01*
X464711Y261986D01*
Y263140D01*
X464961Y263285D01*
X465957Y264280D01*
X466660Y265499D01*
X467025Y266859D01*
Y268267D01*
X466660Y269627D01*
X465957Y270846D01*
X464961Y271841D01*
X464711Y271986D01*
Y273140D01*
X464961Y273285D01*
X465957Y274280D01*
X466660Y275499D01*
X467025Y276859D01*
Y278267D01*
X466660Y279627D01*
X465957Y280846D01*
X464961Y281841D01*
X464711Y281986D01*
Y283140D01*
X464961Y283285D01*
X465957Y284280D01*
X466660Y285499D01*
X467025Y286859D01*
Y288267D01*
X466660Y289627D01*
X465957Y290846D01*
X464961Y291841D01*
X464711Y291986D01*
Y293140D01*
X464961Y293285D01*
X465957Y294280D01*
X466660Y295499D01*
X467025Y296859D01*
Y298267D01*
X466660Y299627D01*
X465957Y300846D01*
X464961Y301841D01*
X464711Y301986D01*
Y303140D01*
X464961Y303285D01*
X465957Y304280D01*
X466660Y305499D01*
X467025Y306859D01*
Y308267D01*
X466660Y309627D01*
X465957Y310846D01*
X464961Y311841D01*
X464711Y311986D01*
Y313140D01*
X464961Y313285D01*
X465957Y314280D01*
X466660Y315499D01*
X467025Y316859D01*
Y318267D01*
X466660Y319627D01*
X465957Y320846D01*
X464961Y321841D01*
X464711Y321986D01*
Y323140D01*
X464961Y323285D01*
X465957Y324280D01*
X466660Y325499D01*
X467025Y326859D01*
Y328267D01*
X466660Y329627D01*
X465957Y330846D01*
X464961Y331841D01*
X463742Y332545D01*
X462382Y332909D01*
X460975D01*
X459615Y332545D01*
X458396Y331841D01*
X457400Y330846D01*
X456696Y329627D01*
X456332Y328267D01*
Y326859D01*
X456696Y325499D01*
X457400Y324280D01*
X458396Y323285D01*
X458646Y323140D01*
Y321986D01*
X458396Y321841D01*
X457400Y320846D01*
X456696Y319627D01*
X456332Y318267D01*
Y316859D01*
X456696Y315499D01*
X457400Y314280D01*
X458396Y313285D01*
X458646Y313140D01*
Y311986D01*
X458396Y311841D01*
X457400Y310846D01*
X456696Y309627D01*
X456332Y308267D01*
Y306859D01*
X456696Y305499D01*
X457400Y304280D01*
X458396Y303285D01*
X458646Y303140D01*
Y301986D01*
X458396Y301841D01*
X457400Y300846D01*
X456696Y299627D01*
X456332Y298267D01*
Y296859D01*
X456696Y295499D01*
X457400Y294280D01*
X458396Y293285D01*
X458646Y293140D01*
Y291986D01*
X458396Y291841D01*
X457400Y290846D01*
X456696Y289627D01*
X456332Y288267D01*
Y286859D01*
X456696Y285499D01*
X457400Y284280D01*
X458396Y283285D01*
X458646Y283140D01*
Y281986D01*
X458396Y281841D01*
X457400Y280846D01*
X456696Y279627D01*
X456332Y278267D01*
Y276859D01*
X456696Y275499D01*
X457400Y274280D01*
X458396Y273285D01*
X458646Y273140D01*
Y271986D01*
X458396Y271841D01*
X457400Y270846D01*
X456696Y269627D01*
X456332Y268267D01*
Y266859D01*
X456696Y265499D01*
X457400Y264280D01*
X458396Y263285D01*
X458646Y263140D01*
Y261986D01*
X458396Y261841D01*
X457400Y260846D01*
X456696Y259627D01*
X456332Y258267D01*
Y256859D01*
X456547Y256058D01*
X455871Y255058D01*
X442426D01*
X442278Y255314D01*
X441283Y256310D01*
X441035Y256453D01*
Y257453D01*
X441283Y257596D01*
X442278Y258591D01*
X442982Y259810D01*
X443347Y261170D01*
Y262578D01*
X442982Y263938D01*
X442278Y265157D01*
X441283Y266152D01*
X441035Y266295D01*
Y267295D01*
X441283Y267438D01*
X442278Y268434D01*
X442982Y269653D01*
X443347Y271013D01*
Y272421D01*
X442982Y273780D01*
X442278Y274999D01*
X441283Y275995D01*
X440064Y276699D01*
X438704Y277063D01*
X437296D01*
X435936Y276699D01*
X434717Y275995D01*
X433722Y274999D01*
X433018Y273780D01*
X432654Y272421D01*
Y271013D01*
X433018Y269653D01*
X433722Y268434D01*
X434717Y267438D01*
X434965Y267295D01*
Y266295D01*
X434717Y266152D01*
X433722Y265157D01*
X433018Y263938D01*
X432654Y262578D01*
Y261170D01*
X433018Y259810D01*
X433722Y258591D01*
X434717Y257596D01*
X434965Y257453D01*
Y256453D01*
X434717Y256310D01*
X433722Y255314D01*
X433018Y254095D01*
X432654Y252735D01*
Y251328D01*
X433018Y249968D01*
X433722Y248749D01*
X434717Y247753D01*
X435936Y247049D01*
X437296Y246685D01*
X438704D01*
X440064Y247049D01*
X441283Y247753D01*
X442278Y248749D01*
X442426Y249006D01*
X455591D01*
X456332Y248267D01*
Y246859D01*
X456696Y245499D01*
X457400Y244280D01*
X458396Y243285D01*
X458646Y243140D01*
Y241986D01*
X458396Y241841D01*
X457400Y240846D01*
X456696Y239627D01*
X456332Y238267D01*
Y236859D01*
X456696Y235499D01*
X457400Y234280D01*
X458396Y233285D01*
X458646Y233140D01*
Y231986D01*
X458396Y231841D01*
X457400Y230846D01*
X456696Y229627D01*
X456373Y228420D01*
X455444Y227936D01*
X448745Y234634D01*
X448446Y235153D01*
X447853Y235746D01*
X447128Y236164D01*
X446319Y236381D01*
X445481D01*
X444672Y236164D01*
X443947Y235746D01*
X443578Y235377D01*
X442438Y235353D01*
X442278Y235629D01*
X441283Y236625D01*
X440064Y237329D01*
X438704Y237693D01*
X437296D01*
X435936Y237329D01*
X434717Y236625D01*
X433722Y235629D01*
X433018Y234410D01*
X432654Y233050D01*
Y231643D01*
X433018Y230283D01*
X433722Y229064D01*
X434717Y228068D01*
X435936Y227364D01*
X437296Y227000D01*
X438704D01*
X440064Y227364D01*
X441283Y228068D01*
X442278Y229064D01*
X442953Y230234D01*
X442998Y230289D01*
X443377Y230435D01*
X444094Y230569D01*
X444466Y230355D01*
X456379Y218442D01*
X456332Y218267D01*
Y216859D01*
X456696Y215499D01*
X457400Y214280D01*
X458396Y213285D01*
X458646Y213140D01*
Y211986D01*
X458396Y211841D01*
X457400Y210846D01*
X456696Y209627D01*
X456332Y208267D01*
Y207452D01*
X455332Y207038D01*
X442541Y219829D01*
X442364Y220134D01*
X441772Y220727D01*
X441047Y221145D01*
X440238Y221362D01*
X439400D01*
X438591Y221145D01*
X437866Y220727D01*
X437416Y220277D01*
X436815Y220070D01*
X436280Y220000D01*
X422026Y234253D01*
Y270002D01*
X422181Y270581D01*
Y271419D01*
X421964Y272228D01*
X421546Y272953D01*
X420953Y273546D01*
X420228Y273964D01*
X419419Y274181D01*
X418581D01*
X417772Y273964D01*
X417047Y273546D01*
X417027Y273525D01*
X416027Y273940D01*
Y278321D01*
X433353Y295647D01*
X433994Y296483D01*
X434397Y297456D01*
X434535Y298500D01*
Y305759D01*
X435534Y306336D01*
X435936Y306105D01*
X437296Y305740D01*
X438704D01*
X440064Y306105D01*
X441283Y306808D01*
X442278Y307804D01*
X442982Y309023D01*
X443347Y310383D01*
Y311790D01*
X442982Y313150D01*
X442278Y314369D01*
X441283Y315365D01*
X441035Y315508D01*
Y316508D01*
X441283Y316651D01*
X442278Y317646D01*
X442982Y318865D01*
X443347Y320225D01*
Y321633D01*
X442982Y322993D01*
X442278Y324212D01*
X441283Y325207D01*
X441035Y325350D01*
Y326350D01*
X441283Y326493D01*
X442278Y327489D01*
X442982Y328708D01*
X443347Y330068D01*
Y330567D01*
X455408Y342629D01*
X456332Y342246D01*
Y342216D01*
X467025D01*
Y352909D01*
X458026D01*
Y372747D01*
X463553Y378274D01*
X617300D01*
X618083Y378377D01*
X618813Y378679D01*
X619440Y379160D01*
X640943Y400664D01*
X640943Y400664D01*
X641424Y401290D01*
X641726Y402020D01*
X641829Y402803D01*
X641829Y402803D01*
Y412776D01*
X643803Y414750D01*
Y421250D01*
X641303Y423750D01*
D02*
G37*
G36*
X340500D02*
X335500D01*
X333000Y421250D01*
X330500Y423750D01*
X325500D01*
X323000Y421250D01*
Y414750D01*
X325500Y412250D01*
X330500D01*
X333000Y414750D01*
X335500Y412250D01*
X340500D01*
X343000Y414750D01*
Y421250D01*
X340500Y423750D01*
D02*
G37*
G36*
X611303D02*
X606303D01*
X603803Y421250D01*
Y414750D01*
X606303Y412250D01*
X611303D01*
X613803Y414750D01*
Y421250D01*
X611303Y423750D01*
D02*
G37*
G36*
X654187Y405205D02*
X652474D01*
X650795Y404871D01*
X649213Y404215D01*
X647789Y403264D01*
X646579Y402053D01*
X645627Y400629D01*
X644972Y399047D01*
X644638Y397368D01*
Y395656D01*
X644972Y393976D01*
X645627Y392394D01*
X646579Y390970D01*
X647789Y389760D01*
X649213Y388808D01*
X650795Y388153D01*
X652474Y387819D01*
X654187D01*
X655866Y388153D01*
X657448Y388808D01*
X658872Y389760D01*
X660083Y390970D01*
X661034Y392394D01*
X661690Y393976D01*
X662024Y395656D01*
Y397368D01*
X661690Y399047D01*
X661034Y400629D01*
X660083Y402053D01*
X658872Y403264D01*
X657448Y404215D01*
X655866Y404871D01*
X654187Y405205D01*
D02*
G37*
G36*
X638546Y371346D02*
X637139D01*
X635779Y370982D01*
X634560Y370278D01*
X633564Y369283D01*
X633421Y369035D01*
X632421D01*
X632278Y369283D01*
X631283Y370278D01*
X630064Y370982D01*
X628704Y371346D01*
X627296D01*
X625936Y370982D01*
X624717Y370278D01*
X623722Y369283D01*
X623018Y368064D01*
X622653Y366704D01*
Y365296D01*
X623018Y363936D01*
X623722Y362717D01*
X624717Y361722D01*
X625936Y361018D01*
X627296Y360653D01*
X628704D01*
X630064Y361018D01*
X631283Y361722D01*
X632278Y362717D01*
X632421Y362965D01*
X633421D01*
X633564Y362717D01*
X634560Y361722D01*
X635779Y361018D01*
X637139Y360653D01*
X638546D01*
X639906Y361018D01*
X641125Y361722D01*
X642121Y362717D01*
X642825Y363936D01*
X643189Y365296D01*
Y366704D01*
X642825Y368064D01*
X642121Y369283D01*
X641125Y370278D01*
X639906Y370982D01*
X638546Y371346D01*
D02*
G37*
G36*
X319166Y369620D02*
X315631D01*
X312095Y366085D01*
Y362549D01*
X316691Y357953D01*
X320227D01*
X323763Y361489D01*
Y365024D01*
X319166Y369620D01*
D02*
G37*
G36*
X667500Y361000D02*
X656500D01*
X654000Y358500D01*
Y353500D01*
X656500Y351000D01*
X667500D01*
X670000Y353500D01*
Y358500D01*
X667500Y361000D01*
D02*
G37*
G36*
Y338598D02*
X656500D01*
X654000Y336098D01*
Y331098D01*
X656500Y328598D01*
X654000Y326098D01*
Y321098D01*
X656500Y318598D01*
X667500D01*
X670000Y321098D01*
Y326098D01*
X667500Y328598D01*
X670000Y331098D01*
Y336098D01*
X667500Y338598D01*
D02*
G37*
G36*
X638546Y296543D02*
X637139D01*
X635779Y296179D01*
X634560Y295475D01*
X633564Y294480D01*
X633421Y294232D01*
X632421D01*
X632278Y294480D01*
X631283Y295475D01*
X630064Y296179D01*
X628704Y296543D01*
X627296D01*
X625936Y296179D01*
X624717Y295475D01*
X623722Y294480D01*
X623018Y293261D01*
X622653Y291901D01*
Y290493D01*
X623018Y289133D01*
X623722Y287914D01*
X624717Y286919D01*
X625936Y286215D01*
X627296Y285850D01*
X628704D01*
X630064Y286215D01*
X631283Y286919D01*
X632278Y287914D01*
X632421Y288162D01*
X633421D01*
X633564Y287914D01*
X634560Y286919D01*
X635779Y286215D01*
X637139Y285850D01*
X638546D01*
X639906Y286215D01*
X641125Y286919D01*
X642121Y287914D01*
X642825Y289133D01*
X643189Y290493D01*
Y291901D01*
X642825Y293261D01*
X642121Y294480D01*
X641125Y295475D01*
X639906Y296179D01*
X638546Y296543D01*
D02*
G37*
G36*
X665500Y306197D02*
X654500D01*
X652000Y303697D01*
Y298697D01*
X654500Y296197D01*
X652000Y293697D01*
Y288697D01*
X654500Y286197D01*
X665500D01*
X668000Y288697D01*
Y293697D01*
X665500Y296197D01*
X668000Y298697D01*
Y303697D01*
X665500Y306197D01*
D02*
G37*
G36*
X328250Y276480D02*
X321750D01*
X319250Y273980D01*
Y268980D01*
X321750Y266480D01*
X328250D01*
X330750Y268980D01*
Y273980D01*
X328250Y276480D01*
D02*
G37*
G36*
X613691Y259648D02*
X612309D01*
X610974Y259290D01*
X609776Y258599D01*
X609370Y258193D01*
X605158D01*
X605158Y258193D01*
X604114Y258055D01*
X603141Y257652D01*
X602305Y257011D01*
X596128Y250834D01*
X595935Y250583D01*
X594890Y250863D01*
X594852Y251149D01*
X594349Y252365D01*
X593547Y253410D01*
X590348Y256609D01*
X589763Y257621D01*
X588786Y258599D01*
X587589Y259290D01*
X586253Y259648D01*
X584871D01*
X583536Y259290D01*
X582339Y258599D01*
X581361Y257621D01*
X580670Y256424D01*
X580312Y255089D01*
Y253706D01*
X580670Y252371D01*
X581361Y251174D01*
X582339Y250197D01*
X582711Y249982D01*
X584938Y247755D01*
Y234398D01*
X585031Y233690D01*
Y228448D01*
X594947D01*
Y215548D01*
X589581D01*
Y203648D01*
X608581D01*
Y215548D01*
X603016D01*
Y228448D01*
X603931D01*
Y228489D01*
X604031Y229448D01*
X604931Y229448D01*
X606981D01*
Y234398D01*
Y239348D01*
X604931D01*
X604031Y239348D01*
X603931Y240306D01*
Y240348D01*
X603016D01*
Y246310D01*
X606829Y250124D01*
X609903D01*
X610974Y249505D01*
X612309Y249148D01*
X613691D01*
X615026Y249505D01*
X616223Y250197D01*
X617201Y251174D01*
X617892Y252371D01*
X618250Y253706D01*
Y255089D01*
X617892Y256424D01*
X617201Y257621D01*
X616223Y258599D01*
X615026Y259290D01*
X613691Y259648D01*
D02*
G37*
G36*
X534704Y256852D02*
X533296D01*
X531936Y256487D01*
X530717Y255783D01*
X529722Y254788D01*
X529018Y253569D01*
X528653Y252209D01*
Y250801D01*
X529018Y249441D01*
X529722Y248222D01*
X530717Y247227D01*
X531936Y246523D01*
X533296Y246159D01*
X534704D01*
X536064Y246523D01*
X537283Y247227D01*
X538278Y248222D01*
X538982Y249441D01*
X539347Y250801D01*
Y252209D01*
X538982Y253569D01*
X538278Y254788D01*
X537283Y255783D01*
X536064Y256487D01*
X534704Y256852D01*
D02*
G37*
G36*
X608981Y239348D02*
Y235398D01*
X611931D01*
Y239348D01*
X608981D01*
D02*
G37*
G36*
X611931Y233398D02*
X608981D01*
Y229448D01*
X611931D01*
Y233398D01*
D02*
G37*
G36*
X670827Y262039D02*
X634606D01*
X634409Y262000D01*
X634208D01*
X633435Y261846D01*
X633250Y261769D01*
X633053Y261730D01*
X632325Y261429D01*
X632158Y261317D01*
X631972Y261240D01*
X631317Y260803D01*
X631175Y260661D01*
X631008Y260549D01*
X630451Y259992D01*
X630339Y259825D01*
X630197Y259683D01*
X629760Y259028D01*
X629683Y258842D01*
X629571Y258675D01*
X629270Y257947D01*
X629231Y257750D01*
X629154Y257565D01*
X629000Y256792D01*
Y256591D01*
X628961Y256394D01*
Y256000D01*
Y202850D01*
Y202456D01*
X629000Y202259D01*
Y202059D01*
X629154Y201286D01*
X629231Y201100D01*
X629270Y200903D01*
X629571Y200175D01*
X629683Y200008D01*
X629760Y199823D01*
X630197Y199168D01*
X630339Y199026D01*
X630451Y198859D01*
X631008Y198301D01*
X631175Y198190D01*
X631317Y198048D01*
X631972Y197610D01*
X632158Y197533D01*
X632325Y197422D01*
X633053Y197120D01*
X633250Y197081D01*
X633435Y197004D01*
X634208Y196850D01*
X634409D01*
X634606Y196811D01*
X670827D01*
X671024Y196850D01*
X671225D01*
X671998Y197004D01*
X672183Y197081D01*
X672380Y197120D01*
X673108Y197422D01*
X673275Y197533D01*
X673461Y197610D01*
X674116Y198048D01*
X674258Y198190D01*
X674425Y198301D01*
X674982Y198859D01*
X675094Y199026D01*
X675236Y199168D01*
X675673Y199823D01*
X675750Y200008D01*
X675862Y200175D01*
X676163Y200903D01*
X676202Y201100D01*
X676279Y201286D01*
X676433Y202059D01*
Y202259D01*
X676472Y202456D01*
Y202850D01*
Y256000D01*
Y256394D01*
X676433Y256591D01*
Y256792D01*
X676279Y257565D01*
X676202Y257750D01*
X676163Y257947D01*
X675862Y258675D01*
X675750Y258842D01*
X675673Y259028D01*
X675236Y259683D01*
X675094Y259825D01*
X674982Y259992D01*
X674425Y260549D01*
X674258Y260661D01*
X674116Y260803D01*
X673461Y261240D01*
X673275Y261317D01*
X673108Y261429D01*
X672380Y261730D01*
X672183Y261769D01*
X671998Y261846D01*
X671225Y262000D01*
X671024D01*
X670827Y262039D01*
D02*
G37*
G36*
X341440Y193795D02*
X337905D01*
X333309Y189198D01*
Y185663D01*
X336844Y182127D01*
X340380D01*
X344976Y186723D01*
Y190259D01*
X341440Y193795D01*
D02*
G37*
G36*
X654187Y185291D02*
X652474D01*
X650795Y184957D01*
X649213Y184302D01*
X647789Y183351D01*
X646579Y182140D01*
X645627Y180716D01*
X644972Y179134D01*
X644638Y177455D01*
Y175742D01*
X644972Y174063D01*
X645627Y172481D01*
X646579Y171057D01*
X647789Y169846D01*
X649213Y168895D01*
X650795Y168240D01*
X652474Y167905D01*
X654187D01*
X655866Y168240D01*
X657448Y168895D01*
X658872Y169846D01*
X660083Y171057D01*
X661034Y172481D01*
X661690Y174063D01*
X662024Y175742D01*
Y177455D01*
X661690Y179134D01*
X661034Y180716D01*
X660083Y182140D01*
X658872Y183351D01*
X657448Y184302D01*
X655866Y184957D01*
X654187Y185291D01*
D02*
G37*
G36*
X390500Y160750D02*
X385500D01*
X383000Y158250D01*
X380500Y160750D01*
X375500D01*
X373000Y158250D01*
Y151750D01*
X375500Y149250D01*
X380500D01*
X383000Y151750D01*
X385500Y149250D01*
X390500D01*
X393000Y151750D01*
Y158250D01*
X390500Y160750D01*
D02*
G37*
G36*
X641303D02*
X636303D01*
X633803Y158250D01*
Y151750D01*
X636303Y149250D01*
X641303D01*
X643803Y151750D01*
Y158250D01*
X641303Y160750D01*
D02*
G37*
G36*
X528419Y202362D02*
X527581D01*
X526772Y202145D01*
X526047Y201727D01*
X525455Y201134D01*
X525036Y200409D01*
X524819Y199600D01*
Y198762D01*
X525036Y197953D01*
X525455Y197228D01*
X526047Y196636D01*
X526157Y196572D01*
X535869Y186860D01*
X535869Y186860D01*
X536495Y186380D01*
X537225Y186077D01*
X538008Y185974D01*
X589747D01*
X605974Y169747D01*
Y160421D01*
X603803Y158250D01*
Y151750D01*
X606303Y149250D01*
X611303D01*
X613803Y151750D01*
X616303Y149250D01*
X621303D01*
X623803Y151750D01*
Y158250D01*
X621303Y160750D01*
X616303D01*
X613803Y158250D01*
X612026Y160027D01*
Y171000D01*
X611923Y171783D01*
X611621Y172513D01*
X611140Y173140D01*
X611140Y173140D01*
X593140Y191140D01*
X592513Y191621D01*
X591783Y191923D01*
X591000Y192026D01*
X539262D01*
X530996Y200292D01*
X530964Y200409D01*
X530546Y201134D01*
X529953Y201727D01*
X529228Y202145D01*
X528419Y202362D01*
D02*
G37*
%LPD*%
D15*
X365929Y406205D02*
X364916Y406152D01*
X363914Y405993D01*
X362934Y405730D01*
X361987Y405367D01*
X361083Y404906D01*
X360232Y404354D01*
X359443Y403715D01*
X358726Y402998D01*
X358087Y402209D01*
X357535Y401358D01*
X357074Y400454D01*
X356711Y399507D01*
X356448Y398527D01*
X356289Y397525D01*
X356236Y396512D01*
X365849Y410672D02*
X364858Y410636D01*
X363872Y410530D01*
X362897Y410353D01*
X361936Y410108D01*
X360996Y409794D01*
X360080Y409413D01*
X359194Y408968D01*
X358343Y408461D01*
X357529Y407894D01*
X356758Y407271D01*
X356034Y406594D01*
X355360Y405866D01*
X354740Y405093D01*
X354177Y404277D01*
X353674Y403423D01*
X353233Y402535D01*
X352856Y401618D01*
X352547Y400676D01*
X352305Y399715D01*
X352133Y398738D01*
X352031Y397752D01*
X352000Y396761D01*
X342500Y335900D02*
Y381116D01*
X339142Y384474D02*
Y385000D01*
X338000Y331400D02*
X342500Y335900D01*
X339142Y384474D02*
X342500Y381116D01*
X614700Y385300D02*
X629000Y399600D01*
X460300Y385300D02*
X614700D01*
X629000Y399600D02*
Y417803D01*
X533500Y370500D02*
X555000Y349000D01*
X469300Y370500D02*
X533500D01*
X530500Y365500D02*
X550000Y346000D01*
X471300Y365500D02*
X530500D01*
X527500Y360500D02*
X546000Y342000D01*
X473300Y360500D02*
X527500D01*
X525000Y355000D02*
X541000Y339000D01*
X475100Y355000D02*
X525000D01*
X462300Y381300D02*
X617300D01*
X455000Y374000D02*
X462300Y381300D01*
X617300D02*
X638803Y402803D01*
X451000Y376000D02*
X460300Y385300D01*
X438000Y330772D02*
X439270D01*
X441122Y332624D01*
X441123D02*
X455000Y346500D01*
Y374000D01*
X441122Y332624D02*
X441123D01*
X366700Y376800D02*
X372900Y383000D01*
X366700Y359416D02*
Y376800D01*
Y359416D02*
X411992Y314124D01*
X372900Y383000D02*
X434000D01*
X365929Y406205D02*
X376955D01*
X388000Y417250D01*
Y418000D01*
X365849Y410672D02*
X371828D01*
X378000Y416843D01*
Y418000D01*
X352000Y346700D02*
Y396761D01*
Y346700D02*
X367928Y330772D01*
X356236Y353480D02*
Y396512D01*
Y353480D02*
X369102Y340614D01*
X338000Y325000D02*
Y331400D01*
X367928Y330772D02*
X369102D01*
X445900Y233200D02*
X461537Y217563D01*
X407952Y342952D02*
X414819Y349819D01*
X434000Y383000D02*
X446000Y371000D01*
X439910Y218181D02*
X458910Y199181D01*
X439819Y218181D02*
X439910D01*
X419000Y233000D02*
X457181Y194819D01*
X435000Y211000D02*
X452000Y194000D01*
X450181Y189819D02*
X471819D01*
X395346Y244654D02*
X450181Y189819D01*
X395346Y244654D02*
Y262653D01*
X446000Y355000D02*
Y371000D01*
X438527Y340614D02*
X451000Y353087D01*
Y376000D01*
X438000Y340614D02*
X438527D01*
X423311Y335000D02*
Y355311D01*
X419000Y342868D02*
Y361181D01*
X418949Y342817D02*
X419000Y342868D01*
Y361181D02*
X422000Y364181D01*
X414819Y349819D02*
Y360000D01*
X550000Y329241D02*
X561678Y317563D01*
X550000Y329241D02*
Y346000D01*
X546000Y323241D02*
X561678Y307563D01*
X546000Y323241D02*
Y342000D01*
X541000Y318241D02*
X561678Y297563D01*
X541000Y318241D02*
Y339000D01*
X521753Y271753D02*
X534000D01*
X522876Y281876D02*
X534000D01*
X490000Y249000D02*
X522876Y281876D01*
X555000Y334241D02*
X561678Y327563D01*
X555000Y334241D02*
Y349000D01*
X496000Y246000D02*
X521753Y271753D01*
X528008Y199075D02*
Y199181D01*
X528181Y198827D02*
Y198902D01*
X538008Y189000D02*
X591000D01*
X528008Y199075D02*
X528181Y198902D01*
Y198827D02*
X538008Y189000D01*
X591000D02*
X609000Y171000D01*
X471819Y189819D02*
X496000Y214000D01*
X458910Y199181D02*
X459000D01*
X419000Y233000D02*
Y271000D01*
X496000Y214000D02*
Y246000D01*
X490000Y216000D02*
Y249000D01*
X468819Y194819D02*
X490000Y216000D01*
X457181Y194819D02*
X468819D01*
X609000Y155197D02*
Y171000D01*
X608803Y155000D02*
X609000Y155197D01*
X438038Y252032D02*
X457210D01*
X461678Y247563D01*
X638803Y402803D02*
Y418000D01*
X628803D02*
X629000Y417803D01*
X332071Y377929D02*
X338000Y372000D01*
X330000Y319000D02*
Y335000D01*
X338000Y343000D01*
Y372000D01*
Y325000D02*
X342071Y320929D01*
X369102D01*
X330000Y319000D02*
X337913Y311087D01*
X369102D01*
Y271716D02*
X386283D01*
X395346Y262653D01*
X325039Y291441D02*
X369063D01*
X325000Y291480D02*
X325039Y291441D01*
X369063D02*
X369102Y291402D01*
X325118Y301362D02*
X368984D01*
X369102Y301244D01*
X325000Y301480D02*
X325118Y301362D01*
X368976Y262000D02*
X369102Y261874D01*
X360000Y262000D02*
X368976D01*
X339000Y241000D02*
X360000Y262000D01*
X339000Y230245D02*
Y241000D01*
X317929Y209174D02*
X339000Y230245D01*
X348000Y240000D02*
X360032Y252031D01*
X369102D01*
X348000Y225103D02*
Y240000D01*
X325000Y202103D02*
X348000Y225103D01*
X356000Y192000D02*
Y237000D01*
X328000Y155000D02*
Y164000D01*
X356000Y192000D01*
X362000Y225244D02*
X369102Y232347D01*
X338000Y164000D02*
X362000Y188000D01*
Y225244D01*
X338000Y155000D02*
Y164000D01*
X361189Y242189D02*
X369102D01*
X356000Y237000D02*
X361189Y242189D01*
D35*
X599081Y209598D02*
D03*
D36*
X589981Y234398D02*
D03*
X598981D02*
D03*
X607981D02*
D03*
D37*
X428492Y370129D02*
Y370858D01*
X430500Y298500D02*
Y368121D01*
X428492Y370129D02*
X430500Y368121D01*
X401992Y280992D02*
X424500Y303500D01*
X411992Y279992D02*
X430500Y298500D01*
X378492Y364508D02*
X424500Y318500D01*
Y303500D02*
Y318500D01*
X378492Y364508D02*
Y370858D01*
X598981Y209698D02*
Y234398D01*
X605158Y254158D02*
X612760D01*
X598981Y247981D02*
X605158Y254158D01*
X598981Y234398D02*
Y247981D01*
X612760Y254158D02*
X613000Y254398D01*
X598981Y209698D02*
X599081Y209598D01*
X401992Y255655D02*
Y280992D01*
X411992Y255266D02*
Y279992D01*
X389000Y234000D02*
Y255266D01*
X378492Y223492D02*
X389000Y234000D01*
X378492Y202103D02*
Y223492D01*
D38*
X585562Y254262D02*
X589981Y249843D01*
Y234398D02*
Y249843D01*
D39*
X662000Y366000D02*
D03*
Y356000D02*
D03*
X660000Y291197D02*
D03*
Y301197D02*
D03*
X662000Y323598D02*
D03*
Y333598D02*
D03*
D40*
X388000Y155000D02*
D03*
X378000D02*
D03*
X368000D02*
D03*
X358000D02*
D03*
X348000D02*
D03*
X338000D02*
D03*
X328000D02*
D03*
X388000Y418000D02*
D03*
X378000D02*
D03*
X368000D02*
D03*
X358000D02*
D03*
X348000D02*
D03*
X338000D02*
D03*
X328000D02*
D03*
X628803Y155000D02*
D03*
X618803D02*
D03*
X608803D02*
D03*
X638803D02*
D03*
X618803Y418000D02*
D03*
X628803D02*
D03*
X638803D02*
D03*
X608803D02*
D03*
D41*
X461678Y347563D02*
D03*
D42*
Y337563D02*
D03*
Y327563D02*
D03*
Y317563D02*
D03*
Y307563D02*
D03*
Y297563D02*
D03*
Y287563D02*
D03*
Y277563D02*
D03*
Y267563D02*
D03*
Y257563D02*
D03*
Y247563D02*
D03*
Y237563D02*
D03*
Y227563D02*
D03*
Y217563D02*
D03*
Y207563D02*
D03*
X561678Y347563D02*
D03*
Y337563D02*
D03*
Y327563D02*
D03*
Y317563D02*
D03*
Y307563D02*
D03*
Y297563D02*
D03*
Y287563D02*
D03*
Y277563D02*
D03*
Y267563D02*
D03*
Y257563D02*
D03*
Y247563D02*
D03*
Y237563D02*
D03*
Y227563D02*
D03*
Y217563D02*
D03*
Y207563D02*
D03*
X438000Y232347D02*
D03*
Y242189D02*
D03*
Y252032D02*
D03*
Y261874D02*
D03*
Y271717D02*
D03*
Y281559D02*
D03*
Y291402D02*
D03*
Y301244D02*
D03*
X369102Y232347D02*
D03*
Y242189D02*
D03*
Y252031D02*
D03*
Y261874D02*
D03*
Y271716D02*
D03*
Y281559D02*
D03*
Y291402D02*
D03*
Y301244D02*
D03*
X438000Y311087D02*
D03*
Y320929D02*
D03*
Y340614D02*
D03*
Y330772D02*
D03*
X369102Y311087D02*
D03*
Y320929D02*
D03*
Y330772D02*
D03*
Y340614D02*
D03*
X378492Y370858D02*
D03*
X388492D02*
D03*
X398492D02*
D03*
X408492D02*
D03*
X418492D02*
D03*
X428492D02*
D03*
X582724Y291197D02*
D03*
X592567D02*
D03*
X637843Y366000D02*
D03*
X628000D02*
D03*
X592567D02*
D03*
X582724D02*
D03*
X628000Y291197D02*
D03*
X637843D02*
D03*
X378492Y202103D02*
D03*
X388492D02*
D03*
X398492D02*
D03*
X408492D02*
D03*
X418492D02*
D03*
X428492D02*
D03*
X359472Y327707D02*
D03*
X346480D02*
D03*
X411992Y255266D02*
D03*
X401992D02*
D03*
X411992Y314124D02*
D03*
X401992D02*
D03*
X389000D02*
D03*
Y255266D02*
D03*
X379000D02*
D03*
Y314124D02*
D03*
X534000Y251505D02*
D03*
Y261629D02*
D03*
Y271753D02*
D03*
Y281876D02*
D03*
Y292000D02*
D03*
Y302124D02*
D03*
Y312247D02*
D03*
Y322371D02*
D03*
D43*
X365929Y396512D02*
D03*
Y176598D02*
D03*
X653331D02*
D03*
Y396512D02*
D03*
D44*
X317929Y363787D02*
D03*
X339142Y385000D02*
D03*
X332071Y377929D02*
D03*
X325000Y370858D02*
D03*
D45*
Y271480D02*
D03*
Y301480D02*
D03*
Y291480D02*
D03*
Y281480D02*
D03*
D46*
X332071Y195032D02*
D03*
X325000Y202103D02*
D03*
X317929Y209174D02*
D03*
X339142Y187961D02*
D03*
D47*
X585562Y264398D02*
D03*
X613000D02*
D03*
D48*
X585562Y254398D02*
D03*
X613000D02*
D03*
D49*
X475100Y355000D02*
D03*
X473300Y360500D02*
D03*
X469300Y370500D02*
D03*
X471300Y365500D02*
D03*
X445900Y233200D02*
D03*
X407952Y342952D02*
D03*
X439819Y218181D02*
D03*
X452000Y194000D02*
D03*
X446000Y355000D02*
D03*
X418949Y342817D02*
D03*
X423311Y335000D02*
D03*
Y355311D02*
D03*
X422000Y364181D02*
D03*
X414819Y360000D02*
D03*
X528000Y199181D02*
D03*
X459000D02*
D03*
X419000Y271000D02*
D03*
X435000Y211000D02*
D03*
M02*
