G04*
G04 #@! TF.GenerationSoftware,Altium Limited,Altium Designer,23.8.1 (32)*
G04*
G04 Layer_Color=16711935*
%FSLAX25Y25*%
%MOIN*%
G70*
G04*
G04 #@! TF.SameCoordinates,219BC79F-92E0-4BE4-9349-49C4CE8B2FF6*
G04*
G04*
G04 #@! TF.FilePolarity,Positive*
G04*
G01*
G75*
%ADD16C,0.00800*%
D16*
X684827Y404591D02*
X684811Y405600D01*
X684762Y406608D01*
X684681Y407615D01*
X684568Y408618D01*
X684423Y409617D01*
X684246Y410611D01*
X684037Y411599D01*
X683797Y412580D01*
X683525Y413552D01*
X683222Y414515D01*
X682889Y415468D01*
X682525Y416410D01*
X682131Y417340D01*
X681708Y418256D01*
X681255Y419159D01*
X680774Y420046D01*
X680264Y420918D01*
X679727Y421773D01*
X679163Y422610D01*
X678572Y423429D01*
X677955Y424228D01*
X677313Y425007D01*
X676647Y425765D01*
X675956Y426502D01*
X675242Y427216D01*
X674506Y427906D01*
X673747Y428573D01*
X672968Y429215D01*
X672169Y429832D01*
X671350Y430423D01*
X670513Y430987D01*
X669658Y431524D01*
X668786Y432034D01*
X667899Y432515D01*
X666996Y432968D01*
X666080Y433391D01*
X665150Y433785D01*
X664208Y434149D01*
X663255Y434482D01*
X662292Y434785D01*
X661320Y435056D01*
X660339Y435297D01*
X659351Y435506D01*
X658357Y435683D01*
X657358Y435828D01*
X656355Y435941D01*
X655349Y436022D01*
X654340Y436070D01*
X653331Y436087D01*
X653331Y136874D02*
X654340Y136890D01*
X655349Y136939D01*
X656355Y137020D01*
X657358Y137133D01*
X658357Y137278D01*
X659351Y137455D01*
X660339Y137664D01*
X661320Y137904D01*
X662292Y138176D01*
X663255Y138479D01*
X664208Y138812D01*
X665150Y139176D01*
X666080Y139570D01*
X666996Y139993D01*
X667899Y140446D01*
X668786Y140927D01*
X669658Y141436D01*
X670513Y141974D01*
X671350Y142538D01*
X672169Y143129D01*
X672968Y143745D01*
X673747Y144387D01*
X674506Y145054D01*
X675242Y145745D01*
X675956Y146459D01*
X676647Y147195D01*
X677313Y147953D01*
X677955Y148733D01*
X678572Y149532D01*
X679163Y150351D01*
X679727Y151188D01*
X680264Y152043D01*
X680774Y152914D01*
X681255Y153802D01*
X681708Y154704D01*
X682131Y155621D01*
X682525Y156551D01*
X682889Y157492D01*
X683222Y158445D01*
X683525Y159408D01*
X683797Y160381D01*
X684037Y161362D01*
X684246Y162349D01*
X684423Y163343D01*
X684568Y164342D01*
X684681Y165346D01*
X684762Y166352D01*
X684811Y167360D01*
X684827Y168370D01*
X397425Y400654D02*
X397511Y399672D01*
X397766Y398720D01*
X398183Y397827D01*
X398748Y397020D01*
X399445Y396323D01*
X400252Y395757D01*
X401145Y395341D01*
X402097Y395086D01*
X403079Y395000D01*
X588323Y395000D02*
X589333Y395062D01*
X590317Y395299D01*
X591244Y395703D01*
X592088Y396262D01*
X592822Y396958D01*
X593423Y397772D01*
X593874Y398678D01*
X594161Y399648D01*
X594276Y400654D01*
X338370Y436087D02*
X337361Y436070D01*
X336352Y436022D01*
X335346Y435941D01*
X334343Y435828D01*
X333343Y435683D01*
X332349Y435506D01*
X331362Y435297D01*
X330381Y435056D01*
X329409Y434785D01*
X328445Y434482D01*
X327492Y434149D01*
X326551Y433785D01*
X325621Y433391D01*
X324705Y432968D01*
X323802Y432515D01*
X322914Y432034D01*
X322043Y431524D01*
X321188Y430987D01*
X320351Y430423D01*
X319532Y429832D01*
X318733Y429215D01*
X317953Y428573D01*
X317195Y427906D01*
X316459Y427216D01*
X315745Y426502D01*
X315054Y425765D01*
X314388Y425007D01*
X313745Y424228D01*
X313129Y423429D01*
X312538Y422610D01*
X311974Y421773D01*
X311437Y420918D01*
X310927Y420046D01*
X310446Y419159D01*
X309993Y418256D01*
X309570Y417340D01*
X309176Y416410D01*
X308812Y415468D01*
X308479Y414515D01*
X308176Y413552D01*
X307904Y412580D01*
X307664Y411599D01*
X307455Y410611D01*
X307278Y409617D01*
X307133Y408618D01*
X307020Y407615D01*
X306939Y406609D01*
X306890Y405600D01*
X306874Y404591D01*
X403417Y178000D02*
X402400Y177937D01*
X401410Y177699D01*
X400476Y177292D01*
X399627Y176729D01*
X398888Y176027D01*
X398283Y175208D01*
X397829Y174296D01*
X397540Y173319D01*
X397425Y172307D01*
X594276Y172307D02*
X594189Y173296D01*
X593932Y174254D01*
X593513Y175154D01*
X592944Y175966D01*
X592242Y176668D01*
X591429Y177237D01*
X590530Y177657D01*
X589571Y177913D01*
X588583Y178000D01*
X306874Y168370D02*
X306890Y167361D01*
X306939Y166352D01*
X307020Y165346D01*
X307133Y164342D01*
X307278Y163343D01*
X307455Y162349D01*
X307664Y161362D01*
X307904Y160381D01*
X308176Y159409D01*
X308479Y158445D01*
X308812Y157492D01*
X309176Y156551D01*
X309570Y155621D01*
X309993Y154704D01*
X310446Y153802D01*
X310927Y152914D01*
X311436Y152043D01*
X311974Y151188D01*
X312538Y150351D01*
X313129Y149532D01*
X313745Y148733D01*
X314387Y147953D01*
X315054Y147195D01*
X315745Y146459D01*
X316459Y145745D01*
X317195Y145054D01*
X317953Y144388D01*
X318733Y143746D01*
X319532Y143129D01*
X320351Y142538D01*
X321188Y141974D01*
X322043Y141437D01*
X322914Y140927D01*
X323802Y140446D01*
X324704Y139993D01*
X325621Y139570D01*
X326551Y139176D01*
X327492Y138812D01*
X328445Y138479D01*
X329409Y138176D01*
X330381Y137904D01*
X331362Y137664D01*
X332349Y137455D01*
X333343Y137278D01*
X334342Y137133D01*
X335346Y137020D01*
X336352Y136939D01*
X337361Y136890D01*
X338370Y136874D01*
X675575Y259909D02*
X676012Y259254D01*
X675575Y259909D02*
X676012Y259254D01*
X676239Y258831D02*
X676540Y258103D01*
X674713Y260837D02*
X675270Y260280D01*
X674713Y260837D02*
X675270Y260280D01*
X676880Y256000D02*
Y256394D01*
Y256000D02*
Y256394D01*
Y202850D02*
Y256000D01*
X676679Y257644D02*
X676833Y256871D01*
X676239Y258831D02*
X676540Y258103D01*
X676679Y257644D02*
X676833Y256871D01*
X671304Y262400D02*
X672077Y262246D01*
X634606Y262447D02*
X670827D01*
X671304Y262400D02*
X672077Y262246D01*
X634606Y262447D02*
X670827D01*
X633356Y262246D02*
X634129Y262400D01*
X633356Y262246D02*
X634129Y262400D01*
X673687Y261579D02*
X674342Y261142D01*
X672536Y262107D02*
X673264Y261806D01*
X673687Y261579D02*
X674342Y261142D01*
X632169Y261806D02*
X632897Y262107D01*
X672536D02*
X673264Y261806D01*
X676880Y202456D02*
Y202850D01*
Y202456D02*
Y202850D01*
X684827Y168370D02*
Y404591D01*
X676880Y202850D02*
Y256000D01*
X676679Y201206D02*
X676833Y201979D01*
X676679Y201206D02*
X676833Y201979D01*
X676239Y200019D02*
X676540Y200747D01*
X676239Y200019D02*
X676540Y200747D01*
X675575Y198941D02*
X676012Y199596D01*
X675575Y198941D02*
X676012Y199596D01*
X674713Y198013D02*
X675270Y198570D01*
X674713Y198013D02*
X675270Y198570D01*
X673687Y197271D02*
X674342Y197709D01*
X673687Y197271D02*
X674342Y197709D01*
X672536Y196743D02*
X673264Y197045D01*
X672536Y196743D02*
X673264Y197045D01*
X633356Y196604D02*
X634129Y196450D01*
X671304D02*
X672077Y196604D01*
X671304Y196450D02*
X672077Y196604D01*
X634606Y196403D02*
X670827D01*
X633356Y196604D02*
X634129Y196450D01*
X634606Y196403D02*
X670827D01*
X632169Y261806D02*
X632897Y262107D01*
X631091Y261142D02*
X631746Y261579D01*
X631091Y261142D02*
X631746Y261579D01*
X594276Y436087D02*
X653331D01*
X630163Y260280D02*
X630720Y260837D01*
X630163Y260280D02*
X630720Y260837D01*
X629421Y259254D02*
X629858Y259909D01*
X629421Y259254D02*
X629858Y259909D01*
X628893Y258103D02*
X629194Y258831D01*
X628893Y258103D02*
X629194Y258831D01*
X628600Y256871D02*
X628754Y257644D01*
X628600Y256871D02*
X628754Y257644D01*
X594276Y400654D02*
Y436087D01*
X338370D02*
X397425D01*
Y400654D02*
Y436087D01*
X628553Y202850D02*
Y256000D01*
Y256394D01*
Y202850D02*
Y256000D01*
X403079Y395000D02*
X588323D01*
X628553Y256000D02*
Y256394D01*
X629421Y199596D02*
X629858Y198941D01*
X629421Y199596D02*
X629858Y198941D01*
X630163Y198570D02*
X630720Y198013D01*
X628893Y200747D02*
X629194Y200019D01*
X628600Y201979D02*
X628754Y201206D01*
X628893Y200747D02*
X629194Y200019D01*
X632169Y197045D02*
X632897Y196743D01*
X631091Y197709D02*
X631746Y197271D01*
X632169Y197045D02*
X632897Y196743D01*
X631091Y197709D02*
X631746Y197271D01*
X630163Y198570D02*
X630720Y198013D01*
X594276Y136874D02*
X653331D01*
X628553Y202456D02*
Y202850D01*
Y202456D02*
Y202850D01*
X628600Y201979D02*
X628754Y201206D01*
X403417Y178000D02*
X588583D01*
X306874Y168370D02*
Y404591D01*
X397425Y136874D02*
Y172307D01*
X594276D02*
X594276Y136874D01*
X338370D02*
X397425D01*
M02*
