G04*
G04 #@! TF.GenerationSoftware,Altium Limited,Altium Designer,23.8.1 (32)*
G04*
G04 Layer_Color=8388736*
%FSLAX25Y25*%
%MOIN*%
G70*
G04*
G04 #@! TF.SameCoordinates,219BC79F-92E0-4BE4-9349-49C4CE8B2FF6*
G04*
G04*
G04 #@! TF.FilePolarity,Negative*
G04*
G01*
G75*
%ADD22R,0.15800X0.08700*%
%ADD23R,0.06700X0.08700*%
G04:AMPARAMS|DCode=24|XSize=128mil|YSize=68mil|CornerRadius=0mil|HoleSize=0mil|Usage=FLASHONLY|Rotation=180.000|XOffset=0mil|YOffset=0mil|HoleType=Round|Shape=Octagon|*
%AMOCTAGOND24*
4,1,8,-0.06400,0.01700,-0.06400,-0.01700,-0.04700,-0.03400,0.04700,-0.03400,0.06400,-0.01700,0.06400,0.01700,0.04700,0.03400,-0.04700,0.03400,-0.06400,0.01700,0.0*
%
%ADD24OCTAGOND24*%

G04:AMPARAMS|DCode=25|XSize=83mil|YSize=68mil|CornerRadius=0mil|HoleSize=0mil|Usage=FLASHONLY|Rotation=270.000|XOffset=0mil|YOffset=0mil|HoleType=Round|Shape=Octagon|*
%AMOCTAGOND25*
4,1,8,-0.01700,-0.04150,0.01700,-0.04150,0.03400,-0.02450,0.03400,0.02450,0.01700,0.04150,-0.01700,0.04150,-0.03400,0.02450,-0.03400,-0.02450,-0.01700,-0.04150,0.0*
%
%ADD25OCTAGOND25*%

%ADD26R,0.07493X0.07493*%
%ADD27C,0.07493*%
%ADD28C,0.14186*%
G04:AMPARAMS|DCode=29|XSize=83mil|YSize=68mil|CornerRadius=0mil|HoleSize=0mil|Usage=FLASHONLY|Rotation=135.000|XOffset=0mil|YOffset=0mil|HoleType=Round|Shape=Octagon|*
%AMOCTAGOND29*
4,1,8,-0.01732,0.04137,-0.04137,0.01732,-0.04137,-0.00672,-0.00672,-0.04137,0.01732,-0.04137,0.04137,-0.01732,0.04137,0.00672,0.00672,0.04137,-0.01732,0.04137,0.0*
%
%ADD29OCTAGOND29*%

G04:AMPARAMS|DCode=30|XSize=83mil|YSize=68mil|CornerRadius=0mil|HoleSize=0mil|Usage=FLASHONLY|Rotation=180.000|XOffset=0mil|YOffset=0mil|HoleType=Round|Shape=Octagon|*
%AMOCTAGOND30*
4,1,8,-0.04150,0.01700,-0.04150,-0.01700,-0.02450,-0.03400,0.02450,-0.03400,0.04150,-0.01700,0.04150,0.01700,0.02450,0.03400,-0.02450,0.03400,-0.04150,0.01700,0.0*
%
%ADD30OCTAGOND30*%

G04:AMPARAMS|DCode=31|XSize=83mil|YSize=68mil|CornerRadius=0mil|HoleSize=0mil|Usage=FLASHONLY|Rotation=225.000|XOffset=0mil|YOffset=0mil|HoleType=Round|Shape=Octagon|*
%AMOCTAGOND31*
4,1,8,-0.04137,-0.01732,-0.01732,-0.04137,0.00672,-0.04137,0.04137,-0.00672,0.04137,0.01732,0.01732,0.04137,-0.00672,0.04137,-0.04137,0.00672,-0.04137,-0.01732,0.0*
%
%ADD31OCTAGOND31*%

G04:AMPARAMS|DCode=32|XSize=73mil|YSize=73mil|CornerRadius=0mil|HoleSize=0mil|Usage=FLASHONLY|Rotation=90.000|XOffset=0mil|YOffset=0mil|HoleType=Round|Shape=Octagon|*
%AMOCTAGOND32*
4,1,8,0.01825,0.03650,-0.01825,0.03650,-0.03650,0.01825,-0.03650,-0.01825,-0.01825,-0.03650,0.01825,-0.03650,0.03650,-0.01825,0.03650,0.01825,0.01825,0.03650,0.0*
%
%ADD32OCTAGOND32*%

%ADD33C,0.07300*%
%ADD34C,0.03162*%
D22*
X599081Y209598D02*
D03*
D23*
X589981Y234398D02*
D03*
X598981D02*
D03*
X607981D02*
D03*
D24*
X662000Y366000D02*
D03*
Y356000D02*
D03*
X660000Y291197D02*
D03*
Y301197D02*
D03*
X662000Y323598D02*
D03*
Y333598D02*
D03*
D25*
X388000Y155000D02*
D03*
X378000D02*
D03*
X368000D02*
D03*
X358000D02*
D03*
X348000D02*
D03*
X338000D02*
D03*
X328000D02*
D03*
X388000Y418000D02*
D03*
X378000D02*
D03*
X368000D02*
D03*
X358000D02*
D03*
X348000D02*
D03*
X338000D02*
D03*
X328000D02*
D03*
X628803Y155000D02*
D03*
X618803D02*
D03*
X608803D02*
D03*
X638803D02*
D03*
X618803Y418000D02*
D03*
X628803D02*
D03*
X638803D02*
D03*
X608803D02*
D03*
D26*
X461678Y347563D02*
D03*
D27*
Y337563D02*
D03*
Y327563D02*
D03*
Y317563D02*
D03*
Y307563D02*
D03*
Y297563D02*
D03*
Y287563D02*
D03*
Y277563D02*
D03*
Y267563D02*
D03*
Y257563D02*
D03*
Y247563D02*
D03*
Y237563D02*
D03*
Y227563D02*
D03*
Y217563D02*
D03*
Y207563D02*
D03*
X561678Y347563D02*
D03*
Y337563D02*
D03*
Y327563D02*
D03*
Y317563D02*
D03*
Y307563D02*
D03*
Y297563D02*
D03*
Y287563D02*
D03*
Y277563D02*
D03*
Y267563D02*
D03*
Y257563D02*
D03*
Y247563D02*
D03*
Y237563D02*
D03*
Y227563D02*
D03*
Y217563D02*
D03*
Y207563D02*
D03*
X438000Y232347D02*
D03*
Y242189D02*
D03*
Y252032D02*
D03*
Y261874D02*
D03*
Y271717D02*
D03*
Y281559D02*
D03*
Y291402D02*
D03*
Y301244D02*
D03*
X369102Y232347D02*
D03*
Y242189D02*
D03*
Y252031D02*
D03*
Y261874D02*
D03*
Y271716D02*
D03*
Y281559D02*
D03*
Y291402D02*
D03*
Y301244D02*
D03*
X438000Y311087D02*
D03*
Y320929D02*
D03*
Y340614D02*
D03*
Y330772D02*
D03*
X369102Y311087D02*
D03*
Y320929D02*
D03*
Y330772D02*
D03*
Y340614D02*
D03*
X378492Y370858D02*
D03*
X388492D02*
D03*
X398492D02*
D03*
X408492D02*
D03*
X418492D02*
D03*
X428492D02*
D03*
X582724Y291197D02*
D03*
X592567D02*
D03*
X637843Y366000D02*
D03*
X628000D02*
D03*
X592567D02*
D03*
X582724D02*
D03*
X628000Y291197D02*
D03*
X637843D02*
D03*
X378492Y202103D02*
D03*
X388492D02*
D03*
X398492D02*
D03*
X408492D02*
D03*
X418492D02*
D03*
X428492D02*
D03*
X359472Y327707D02*
D03*
X346480D02*
D03*
X411992Y255266D02*
D03*
X401992D02*
D03*
X411992Y314124D02*
D03*
X401992D02*
D03*
X389000D02*
D03*
Y255266D02*
D03*
X379000D02*
D03*
Y314124D02*
D03*
X534000Y251505D02*
D03*
Y261629D02*
D03*
Y271753D02*
D03*
Y281876D02*
D03*
Y292000D02*
D03*
Y302124D02*
D03*
Y312247D02*
D03*
Y322371D02*
D03*
D28*
X365929Y396512D02*
D03*
Y176598D02*
D03*
X653331D02*
D03*
Y396512D02*
D03*
D29*
X317929Y363787D02*
D03*
X339142Y385000D02*
D03*
X332071Y377929D02*
D03*
X325000Y370858D02*
D03*
D30*
Y271480D02*
D03*
Y301480D02*
D03*
Y291480D02*
D03*
Y281480D02*
D03*
D31*
X332071Y195032D02*
D03*
X325000Y202103D02*
D03*
X317929Y209174D02*
D03*
X339142Y187961D02*
D03*
D32*
X585562Y264398D02*
D03*
X613000D02*
D03*
D33*
X585562Y254398D02*
D03*
X613000D02*
D03*
D34*
X475100Y355000D02*
D03*
X473300Y360500D02*
D03*
X469300Y370500D02*
D03*
X471300Y365500D02*
D03*
X445900Y233200D02*
D03*
X407952Y342952D02*
D03*
X439819Y218181D02*
D03*
X452000Y194000D02*
D03*
X446000Y355000D02*
D03*
X418949Y342817D02*
D03*
X423311Y335000D02*
D03*
Y355311D02*
D03*
X422000Y364181D02*
D03*
X414819Y360000D02*
D03*
X528000Y199181D02*
D03*
X459000D02*
D03*
X419000Y271000D02*
D03*
X435000Y211000D02*
D03*
M02*
