M48
;Layer_Color=9474304
;FILE_FORMAT=2:5
INCH,LZ
;TYPE=PLATED
T01F00S00C0.01181
T02F00S00C0.03543
T03F00S00C0.03937
T04F00S00C0.04000
T05F00S00C0.12598
%
T01
X0528Y0199181
X0459
X0452Y0194
X0435Y0211
X0439819Y0218181
X04459Y02332
X0419Y0271
X0423311Y0335
X0418949Y0342817
X0407952Y0342952
X0414819Y036
X0422Y0364181
X0423311Y0355311
X0446Y0355
X04751
X04733Y03605
X04713Y03655
X04693Y03705
T02
X0628Y0291197
X0637843
X0592567
X0582724
X0561678Y0287563
Y0297563
Y0307563
Y0277563
Y0267563
Y0257563
Y0247563
Y0237563
Y0227563
Y0217563
Y0207563
X0534Y0251505
Y0261629
Y0271753
Y0281876
Y0292
Y0302124
Y0312247
X0461678Y0307563
Y0297563
Y0287563
Y0277563
Y0267563
Y0257563
Y0247563
Y0237563
Y0227563
Y0217563
Y0207563
X0428492Y0202103
X0418492
X0408492
X0398492
X0388492
X0378492
X0369102Y0232347
Y0242189
Y0252031
Y0261874
Y0271716
Y0281559
Y0291402
Y0301244
Y0311087
X0379Y0255266
X0389
X0401992
X0411992
X0438Y0252032
Y0242189
Y0232347
Y0261874
Y0271717
Y0281559
Y0291402
Y0301244
Y0311087
Y0320929
Y0330772
Y0340614
X0461678Y0337563
Y0347563
Y0327563
Y0317563
X0411992Y0314124
X0401992
X0389
X0379
X0369102Y0320929
Y0330772
Y0340614
X0359472Y0327707
X034648
X0378492Y0370858
X0388492
X0398492
X0408492
X0418492
X0428492
X0534Y0322371
X0561678Y0317563
Y0327563
Y0337563
Y0347563
X0582724Y0366
X0592567
X0628
X0637843
T03
X0328Y0155
X0338
X0348
X0358
X0368
X0378
X0388
X0608803
X0618803
X0628803
X0638803
X0339142Y0187961
X0332071Y0195032
X0325Y0202103
X0317929Y0209174
X0325Y027148
Y028148
Y029148
Y030148
X0317929Y0363787
X0325Y0370858
X0332071Y0377929
X0339142Y0385
X0338Y0418
X0348
X0358
X0368
X0378
X0388
X0328
X0608803
X0618803
X0628803
X0638803
T04
X066Y0291197
Y0301197
X0613Y0264398
Y0254398
X0585562
Y0264398
X0662Y0323598
Y0333598
Y0356
Y0366
T05
X0653331Y0176598
X0365929
Y0396512
X0653331
M30
